<svg xmlns="http://www.w3.org/2000/svg" viewBox="0 0 14 14">
  <g fill="none" fill-rule="evenodd" transform="translate(-.856 -.399)">
    <path fill-rule="nonzero" d="M11.6073026,5.52092497 C11.831534,5.76611295 11.831534,6.17847456 11.6073026,6.42366254 C11.4951869,6.54625653 11.3423018,6.61312598 11.1894168,6.61312598 C11.0365317,6.61312598 10.893839,6.54625653 10.7715309,6.42366254 L8.73306338,4.19468088 L8.73306338,10.98193 C8.73306338,11.3385671 8.4680626,11.6283347 8.14190779,11.6283347 C7.81575299,11.6283347 7.55075221,11.3385671 7.55075221,10.98193 L7.55075221,4.20582579 L5.51228467,6.43480745 C5.28805324,6.67999543 4.91093674,6.67999543 4.68670531,6.43480745 C4.46247388,6.18961946 4.46247388,5.77725786 4.68670531,5.53206988 L7.73421429,2.1997423 C7.84633,2.07714831 7.99921507,2.01027886 8.15210013,2.01027886 C8.3049852,2.01027886 8.45787026,2.07714831 8.56998598,2.1997423 L11.6073026,5.52092497 Z" transform="rotate(45 8.147 6.82)"/>
    <rect width="13" height="13" x="1.356" y=".899" rx="1"/>
  </g>
</svg>
