<svg xmlns="http://www.w3.org/2000/svg" viewBox="0 0 61 53">
  <path d="M39.7405236,18.9692856 L51.5571455,9.2245083 C56.2700007,5.3379724 61,7.578022 61,13.687005 L61,37.718769 C61,43.8171109 56.2581224,46.0937109 51.5001438,42.2847014 L39.3585455,32.56472 C37.0584243,30.7233533 35.9373844,28.2192768 36.0002961,25.7305697 C36.000099,25.7190037 36,25.7074138 36,25.6958008 L36,21.0010939 C36,18.7868524 34.2143507,17 32.0073723,17 L24.5424805,17 C23.437911,17 22.5424805,16.1045695 22.5424805,15 C22.5424805,13.8954305 23.437911,13 24.5424805,13 L32.0073723,13 C35.7228511,13 38.8433125,15.5322606 39.7405236,18.9692856 L39.7405236,18.9692856 L39.7405236,18.9692856 Z M41.801375,22.4544788 L54.1020657,12.3105059 C56.2027609,10.578132 57,10.9556913 57,13.687005 L57,37.718769 C57,40.4618532 56.13959,40.8749405 53.999975,39.1620673 L41.8583767,29.4420859 C39.3987087,27.4729936 39.3758098,24.4547621 41.801375,22.4544788 L41.801375,22.4544788 Z M9.009478,36 C6.7934652,36 5,34.2103846 5,32.002068 L5,20.997932 C5,19.5923764 5.7279603,18.3161982 6.903105,17.5919437 C7.8434318,17.0124101 8.1359124,15.7803197 7.5563787,14.8399929 C6.9768451,13.8996661 5.7447547,13.6071855 4.8044279,14.1867191 C2.4591926,15.6321132 1,18.1902059 1,20.997932 L1,32.002068 C1,36.42145 4.5862481,40 9.009478,40 L28.0031815,40 C29.107751,40 30.0031815,39.1045695 30.0031815,38 C30.0031815,36.8954305 29.107751,36 28.0031815,36 L9.009478,36 L9.009478,36 Z M49.2332665,52.0616936 C50.0143151,52.8427422 51.2806451,52.8427422 52.0616937,52.0616936 C52.8427422,51.280645 52.8427422,50.014315 52.0616937,49.2332664 L3.9142136,1.0857864 C3.133165,0.3047379 1.866835,0.3047379 1.0857864,1.0857864 C0.3047379,1.866835 0.3047379,3.133165 1.0857864,3.9142136 L49.2332665,52.0616936 L49.2332665,52.0616936 Z"/>
</svg>
