<svg xmlns="http://www.w3.org/2000/svg" viewBox="0 0 27 24">
  <g fill-rule="evenodd">
    <path d="M14.6866242,5.71267606 C14.6866242,5.71267606 12.588535,6.28732394 12.6573248,8.31549296 C12.6573248,8.31549296 16.0280255,6.25352113 17.8165605,9.26197183 C17.8165605,9.26197183 14.4802548,6.86197183 12.3133758,9.83661972 C12.3133758,9.83661972 14.8585987,8.34929577 16.4063694,10.0056338 C16.4063694,10.0056338 14.2050955,9.29577465 13.5515924,10.343662 C13.5515924,10.343662 15.3745223,9.66760563 17.6101911,11.1549296 C19.6738854,9.36338028 20.2242038,13.115493 22.4942675,12.8112676 C24.0076433,12.6084507 23.3197452,10.4450704 23.0789809,10.2760563 C23.0789809,10.2760563 22.7006369,12.6760563 22.0471338,10.0732394 C21.0152866,12.4394366 19.3643312,8.85633803 18.6076433,7.77464789 C18.6076433,7.77464789 19.6050955,6.55774648 22.5286624,7.30140845 C22.5286624,7.30140845 24.4203822,7.63943662 25.211465,6.7943662 L25.211465,7.90985915 C25.4866242,7.2 26.0025478,5.84788732 26.4496815,7.84225352 C28.444586,4.29295775 24.1796178,4.76619718 22.2535032,4.86760563 C22.322293,2.6028169 17.5414013,3.98873239 14.9617834,1.21690141 L15.133758,2.33239437 C14.755414,0.43943662 12.0726115,1.11549296 10.6968153,0 C11.3503185,1.65633803 13.4484076,1.01408451 13.4484076,2.43380282 C13.4484076,2.53521127 12.8636943,1.45352113 11.0063694,1.72394366 C11.0063694,1.72394366 7.46369427,1.62253521 7.11974522,0.709859155 C7.94522293,3.17746479 13.2420382,1.72394366 12.0726115,2.87323944 C12.0726115,2.87323944 6.01910828,3.71830986 4.36815287,0.912676056 C4.54012739,6.7943662 13.5859873,1.85915493 14.6866242,5.71267606 Z M19.7082803,5.98309859 C19.5019108,4.83380282 17.8509554,5.0028169 17.8509554,5.0028169 C19.7082803,3.78591549 20.9464968,5.71267606 20.9464968,5.71267606 L19.7082803,5.98309859 Z"/>
    <path d="M11.866242,9.36338028 C11.866242,9.36338028 11.4878981,6.62535211 13.7235669,5.4084507 C12.2789809,4.29295775 10.0433121,5.37464789 7.80764331,4.76619718 C7.80764331,4.76619718 10.077707,5.64507042 10.2840764,6.21971831 C10.2840764,6.21971831 5.60636943,3.88732394 2.61401274,6.52394366 C2.61401274,6.52394366 5.19363057,6.11830986 6.01910828,7.30140845 C6.01910828,7.30140845 2.06369427,6.21971831 0,9.8028169 C0,9.8028169 2.47643312,8.75492958 3.43949045,9.46478873 C3.43949045,9.46478873 0.481528662,9.93802817 0.137579618,13.284507 C0.137579618,13.284507 0.722292994,12.1014085 2.71719745,11.6957746 C2.71719745,11.6957746 0.103184713,13.5211268 1.13503185,18.828169 C1.13503185,18.828169 1.44458599,16.5633803 2.44203822,15.9549296 C2.44203822,15.9549296 1.71974522,19.571831 5.3656051,22.1746479 L5.3656051,20.3492958 C5.3656051,20.3492958 8.70191083,25.0140845 16.9566879,23.7971831 C6.9477707,22.7830986 4.54012739,12.3042254 11.866242,9.36338028 Z"/>
  </g>
</svg>
