<svg xmlns="http://www.w3.org/2000/svg" viewBox="0 0 146 60">
  <g fill="none" fill-rule="evenodd" transform="translate(5 5)">
    <path fill="#131516" fill-rule="nonzero" d="M3.43275,4.16 L26.0894664,4.16 L33.6417052,15.2533333 L45.9999142,4.16 L47.3730485,31.2 L52.1790186,29.12 L54.2387201,16.64 L70.0297649,8.32 L71.4028993,13.1733333 L74.1491679,10.4 L86.5073771,15.2533333 L96.119317,8.32 L101.611854,13.1733333 L104.358123,4.16 L124.268571,4.16 L135.253646,20.8 L129.761108,25.6533333 L135.253646,29.12 L132.507377,46.4533333 C128.387974,46.4533333 124.497198,47.3775467 120.835735,49.2266667 L108.477526,49.2266667 L104.358123,42.9866667 L100.084243,48.256 C85.6395562,46.51712 74.7059739,45.68512 67.2834963,45.76 C59.8610187,45.83488 49.6915858,46.8783467 36.7758843,48.8917867 L30.2088694,45.0666667 L25.4028993,49.92 L17.8506604,49.92 C15.8259738,48.73232 13.5376455,48.1506133 10.9849888,48.1762667 C8.43233209,48.20192 6.60125746,48.20192 5.49245149,48.1762667 L10.2984216,36.7466667 L10.2984216,15.2533333 L3.43275,4.16 Z"/>
    <path stroke="#131516" stroke-width="5" d="M33.9548657,12.6533333 L47.5310448,0.466613333 L48.9611642,28.62704 L50.6405074,27.9004267 L52.6864776,15.5029333 L71.1022686,5.79973333 L72.2522687,9.86474667 L73.7277015,8.37408 L86.2644179,13.2981333 L96.2271938,6.11242667 L100.749612,10.1088 L103.090806,2.42666667 L125.187283,2.42666667 L137.516657,21.10368 L132.631045,25.4203733 L137.12806,28.25888 L133.971224,48.1866667 L132.507463,48.1866667 C128.653761,48.1866667 125.026627,49.04848 121.603403,50.77696 L121.240896,50.96 L107.558985,50.96 L104.216776,45.8965867 L100.815522,50.0891733 L99.8817913,49.9768533 C85.5037015,48.2462933 74.6346568,47.41984 67.3007463,47.4933333 C59.9737015,47.5668267 49.8797911,48.6026667 37.0382388,50.6050133 L36.4409254,50.69792 L30.4918209,47.23264 L26.1142686,51.6533333 L17.388,51.6533333 L16.9884179,51.4189867 C15.2376716,50.3907733 13.252806,49.88672 11.0015523,49.9096 C8.43173131,49.9359467 6.58555224,49.9359467 5.45340299,49.9096 L2.92408955,49.8506667 L8.58208953,36.39376 L8.58208953,15.7504533 L0.33641791,2.42666667 L26.992388,2.42666667 L33.9541791,12.6533333 L33.9548657,12.6533333 Z"/>
    <path stroke="#FFF" stroke-width="2" d="M3.43275,4.16 L26.0894664,4.16 L33.6417052,15.2533333 L45.9999142,4.16 L47.3730485,31.2 L52.1790186,29.12 L54.2387201,16.64 L70.0297649,8.32 L71.4028993,13.1733333 L74.1491679,10.4 L86.5073771,15.2533333 L96.119317,8.32 L101.611854,13.1733333 L104.358123,4.16 L124.268571,4.16 L135.253646,20.8 L129.761108,25.6533333 L135.253646,29.12 L132.507377,46.4533333 C128.387974,46.4533333 124.497198,47.3775467 120.835735,49.2266667 L108.477526,49.2266667 L104.358123,42.9866667 L100.084243,48.256 C85.6395562,46.51712 74.7059739,45.68512 67.2834963,45.76 C59.8610187,45.83488 49.6915858,46.8783467 36.7758843,48.8917867 L30.2088694,45.0666667 L25.4028993,49.92 L17.8506604,49.92 C15.8259738,48.73232 13.5376455,48.1506133 10.9849888,48.1762667 C8.43233209,48.20192 6.60125746,48.20192 5.49245149,48.1762667 L10.2984216,36.7466667 L10.2984216,15.2533333 L3.43275,4.16 Z"/>
    <path fill="#FFF" fill-rule="nonzero" d="M11.7723971,42.9503549 C12.2484457,42.4098475 12.6767618,41.8284418 13.0524617,41.2127656 C13.3806833,40.6832148 13.6760829,40.0874702 13.9386602,39.4255319 C14.2012376,38.7635936 14.3325263,38.0851067 14.3325263,37.3900711 L14.3325263,12.617021 L10,8 L26.0500403,8 L34.3212268,21.0567373 C33.2206521,21.9561299 32.096079,22.8252435 30.948749,23.6631205 C29.7399054,24.5480143 28.5254603,25.4251008 27.3054883,26.2943266 C26.074657,27.1713948 24.8684423,28.0319151 23.6868443,28.8758868 C22.6075362,29.6444208 21.5406751,30.4305757 20.4866828,31.2340428 C20.4866828,32.2931444 20.5030939,33.3026001 20.5359161,34.2624115 C20.5687382,35.0898345 20.5933549,35.9338063 20.609766,36.7943266 C20.626177,37.6548461 20.6343826,38.3664303 20.6343826,38.9290784 C20.6343826,39.4917257 20.7492601,40.0130022 20.9790153,40.4929078 C21.2087705,40.9728135 21.4713479,41.394799 21.7667473,41.758865 C22.094969,42.1891256 22.472424,42.5862881 22.8991122,42.9503549 L11.7723971,42.9503549 Z M26.2962066,19.9645392 L22.8006456,15.0496451 L20.4866828,15.0496451 L20.4866828,24.3333331 L26.2962066,19.9645392 Z M35.2566586,37.6382975 C36.3726123,37.5390073 37.1111111,37.2907801 37.472155,36.8936168 C37.8331988,36.4964535 38.0137207,35.6690305 38.0137207,34.4113476 L38.0137207,22.5957445 C37.4715453,22.0471983 36.8960453,21.5332034 36.2905569,21.0567373 C35.6997579,20.5933802 35.3715362,20.3451539 35.3058918,20.3120566 L44.0694111,12.1702126 C44.0694111,14.0236408 44.0776164,15.5378251 44.0940277,16.7127656 C44.1104383,17.8877068 44.1186443,19.1040189 44.1186443,20.3617025 L44.1186443,36.6453905 L44.5617437,36.6453905 C45.0212535,36.6453905 45.6859025,36.6288418 46.5556898,36.5957445 C47.4570688,36.558872 48.3542075,36.4509782 49.2389022,36.2730493 C50.1490301,36.0939488 51.0337248,35.8021402 51.8728814,35.4042555 C52.7098468,35.0070922 53.3252625,34.4444441 53.7191286,33.716312 L53.7191286,40.7659572 L53.5714288,41.0141843 C53.3744958,41.3120566 53.1939733,41.5685581 53.029863,41.783688 C52.8657519,41.9988178 52.6113803,42.1808513 52.2667475,42.3297874 C51.9221147,42.4787235 51.4626041,42.5945624 50.8882163,42.6773048 C50.3138286,42.7600472 49.5178904,42.8262409 48.5004034,42.8758868 C47.4829163,42.9255319 46.219263,42.9586292 44.7094434,42.975177 C43.199623,42.9917257 41.3451706,43 39.1460855,43 L35.2566586,37.6382975 L35.2566586,37.6382975 Z M63.9104119,42.9503549 L62.4087975,42.9503549 C61.4733657,42.9503549 60.431262,42.9338063 59.2824858,42.900709 L54.7530269,42.8014188 C55.0484265,42.5697402 55.3766479,42.1973999 55.7376921,41.6843969 C56.0987354,41.1713948 56.3120798,40.5839245 56.3777236,39.9219855 C56.4105463,39.7234042 56.4843962,39.3096931 56.5992733,38.6808513 C56.7141511,38.0520094 56.8536456,37.2825058 57.017756,36.3723403 C57.1818671,35.4621749 57.3705948,34.4609927 57.5839384,33.3687947 C57.7972828,32.2765958 58.0024211,31.1678491 58.1993541,30.042553 C58.6916867,27.4278963 59.2496638,24.5153665 59.8732848,21.3049644 L58.2978206,19.1205675 L68.3414042,13.1134753 C68.2429376,13.6099289 68.1608825,14.1063832 68.0952379,14.6028367 C68.0295941,15.0661938 68.0049774,15.5543738 68.021388,16.0673759 C68.0377993,16.5803781 68.1116492,17.0685581 68.2429376,17.5319151 C68.4070488,18.0283686 68.6368037,18.8557917 68.9322032,20.0141843 C69.2276028,21.1725769 69.5558242,22.364066 69.9168684,23.5886524 C70.3123634,25.1362808 70.7391405,26.6756078 71.196933,28.2056734 L74.8894273,27.1134753 L75.5786928,30.2907801 L72.2308314,31.7304964 C72.5590529,33.3853425 72.920097,34.9408984 73.3139631,36.3971633 C73.6439394,37.6606585 74.0216702,38.9109794 74.4463279,40.1453905 C74.8730159,41.3865247 75.3161152,42.3215131 75.7756259,42.9503549 L66.7167067,42.9503549 C66.9792843,42.6524826 67.2254506,42.3215131 67.4552055,41.957447 C67.6521386,41.6595748 67.832661,41.3368795 67.9967714,40.9893614 C68.1608825,40.641844 68.2429376,40.2860523 68.2429376,39.9219855 C68.2429376,39.5579194 68.1937044,39.0283686 68.0952379,38.3333331 L67.7998383,36.2482272 C67.6685499,35.4208041 67.5208501,34.5437351 67.356739,33.617021 C66.142319,34.0472816 65.0755987,34.5768324 64.1565781,35.2056734 C63.3577018,35.7792606 62.6518466,36.474277 62.0641647,37.2659572 C61.4569543,38.0768324 61.2354047,39.0449173 61.3995158,40.1702126 C62.2200698,41.2293142 62.8518968,41.957447 63.2949962,42.3546095 C63.7380955,42.7517728 63.9432338,42.9503549 63.9104119,42.9503549 L63.9104119,42.9503549 Z M62.8272802,32.0780145 L66.5197737,29.5957445 L64.4027444,23.4397162 L62.8272802,32.0780145 Z M89.8071024,42.9503549 C89.7742805,42.9503549 90.2173798,41.9905435 91.1364003,40.0709216 L91.1364003,32.2269507 L84.2929784,25.7730493 L84.2929784,39.8226952 C84.2929784,40.3191487 84.3668283,40.7659572 84.5145281,41.1631205 C84.6622279,41.5602837 84.8345443,41.8912533 85.0314773,42.1560283 C85.2284103,42.4869978 85.4745766,42.7517728 85.7699761,42.9503549 L76.711057,42.9503549 L77.9418884,39.8226952 L77.9418884,20.9078011 L74.7417275,18.8723403 L75.8248591,15.099291 C77.6300783,15.5957445 79.1234865,16.0591016 80.3050847,16.4893614 C81.465422,16.9092866 82.5791881,17.4500334 83.6283295,18.1028367 C84.6622279,18.7482272 85.7453595,19.6004732 86.8777236,20.6595748 C88.0100885,21.7186764 89.4296477,23.1087467 91.1364003,24.8297874 L91.1364003,21.9503549 C91.1364003,21.7186764 91.0133172,21.4704492 90.7671509,21.2056734 C90.5209846,20.9408984 90.2502017,20.6761226 89.9548022,20.4113476 C89.5729179,20.0976967 89.1787367,19.7995858 88.773204,19.5177308 L96.256659,13.6595748 C96.2238363,16.7706858 96.1992197,19.5673759 96.1828091,22.0496451 C96.1663977,24.5319151 96.1499864,26.7990544 96.1335758,28.8510639 C96.1171645,30.9030733 96.1089592,32.8144209 96.1089592,34.5851067 L96.1089592,39.8226952 C96.1089592,40.4846335 96.3058922,41.1134753 96.6997575,41.7092199 C97.0936236,42.3049644 97.4382563,42.7186764 97.7336559,42.9503549 L89.8071024,42.9503549 L89.8071024,42.9503549 Z M111.8636,11.7730493 L107.728006,8.09929102 L123.187248,8.09929102 L132,21.0070922 L124.467313,27.9078011 L131.7046,30.1914891 C131.737422,30.9527184 131.77845,31.722222 131.827684,32.5 C131.876917,33.277778 131.901533,33.9976357 131.901533,34.6595748 C131.901533,35.3877068 131.885122,36.1158389 131.8523,36.8439717 C131.819347,37.5729907 131.712111,38.296657 131.532284,39.0035465 C131.347559,39.725509 131.065971,40.4186681 130.695319,41.0638294 C130.317864,41.7257685 129.768093,42.3546095 129.046005,42.9503549 L109.894269,42.9503549 L110.189669,42.4539006 C110.386602,42.1229318 110.608152,41.7009456 110.854318,41.1879434 C111.100484,40.6749413 111.330239,40.0874702 111.543584,39.4255319 C111.756928,38.7635936 111.8636,38.0851067 111.8636,37.3900711 L111.8636,11.7730493 L111.8636,11.7730493 Z M125.255045,34.0141843 L118.214689,31.0851067 L118.214689,38.4822692 L122.596449,38.4822692 C123.417003,38.4822692 124.06524,38.2340428 124.541162,37.7375885 C125.017084,37.241135 125.255045,36.6784869 125.255045,36.0496451 L125.255045,34.0141843 Z M124.024213,19.9645392 L120.528652,15.0496451 L118.214689,15.0496451 L118.214689,24.382979 L124.024213,19.9645392 L124.024213,19.9645392 Z"/>
  </g>
</svg>
