<svg xmlns="http://www.w3.org/2000/svg" width="273" height="253" viewBox="0 0 273 253">
  <g fill="none" fill-rule="evenodd" transform="translate(-.5)">
    <path fill="#FFF" fill-rule="nonzero" d="M160.232673,167.4 L178.737624,163 L180.5,178.84 L158.470297,185 L160.232673,167.4 Z M111.767327,167.4 L93.2623762,163 L91.5,178.84 L113.529703,185 L111.767327,167.4 Z"/>
    <path fill="#131516" fill-rule="nonzero" d="M135.895195,236.015258 C153.057345,235.918581 153.173287,230.25729 146.064506,219.032258 C155.986885,227.718419 162.573483,232.944226 160.706897,242.548387 C162.204414,247.559065 145.001552,252.54971 136.535977,252.971258 C136.474435,252.989137 136.410731,252.998804 136.346575,253 C136.184609,253 136.019103,252.998258 135.849172,252.995645 C135.711103,252.998258 135.57569,253 135.443816,253 C135.394925,252.999529 135.34624,252.993686 135.298667,252.982581 C126.877345,252.707355 109.974517,249.30971 111.47469,244.290323 C109.608103,234.686161 115.803506,227.718419 125.725885,219.032258 C118.617103,230.25729 118.733046,235.918581 135.895195,236.015258 L135.895195,236.015258 Z M111.143678,163.290323 C119.40392,165.613194 125.894931,166.774194 130.614943,166.774194 C132.385057,166.774194 135.04023,164.16129 135.925287,164.16129 C136.810345,164.16129 139.465517,166.774194 141.235632,166.774194 C143.005747,167.355129 150.086207,166.193258 162.477011,163.290323 L140.350575,169.387097 C139.170793,168.226097 137.695402,167.645161 135.925287,167.645161 C134.155172,167.645161 132.679782,168.226097 131.5,169.387097 L111.143678,163.290323 Z M72.2011494,163.290323 L81.9367816,163.290323 L88.1321839,158.935484 L96.0977011,163.290323 L106.718391,163.290323 C116.159299,169.097065 122.649425,171.129032 126.189655,169.387097 C124.41954,172 122.649425,174.612903 118.224138,175.483871 C123.534483,187.677419 122.944149,200.741935 116.454023,214.677419 C119.40392,198.419065 113.356322,187.967452 98.3103448,183.322581 C98.9741379,189.232968 98.8847471,196.622258 100.522989,199.870968 C104.063218,201.612903 106.233379,202.359323 106.718391,193.774194 C112.028736,205.079355 95.6250805,205.079355 96.9827586,210.322581 C97.0818851,210.705806 85.4770115,181.580645 72.2011494,163.290323 Z M96.0977011,165.903226 C94.3275862,168.806161 94.0328621,172.290032 95.2126437,176.354839 L108.488506,183.322581 L112.028736,183.322581 C108.488506,178.67771 104.357943,173.161 99.637931,166.774194 C98.4227471,165.445968 96.6853793,164.631613 96.0977011,165.903226 Z M200.26277,162.419355 L187.258621,162.419355 L182.833333,156.322581 L177.522989,162.419355 L165.745529,162.419355 C156.142655,169.059613 149.652529,171.381613 146.274264,169.387097 C146.545977,171.129032 148.316092,173.741935 154.239782,175.483871 C148.929437,187.677419 149.518885,200.741935 156.009897,214.677419 C153.059115,198.419065 159.107598,187.967452 174.153575,183.322581 C173.489782,189.232968 173.578287,196.622258 171.940931,199.870968 C168.400701,201.612903 166.229655,202.359323 165.745529,193.774194 C160.435184,205.079355 176.838839,205.079355 175.481161,210.322581 C175.382034,210.705806 186.986908,180.709677 200.26277,162.419355 Z M176.366218,165.903226 C178.136333,168.806161 178.431057,172.290032 177.251276,176.354839 L163.975414,183.322581 L160.435184,183.322581 C163.975414,178.67771 168.105092,173.161 172.825989,166.774194 C174.040287,165.445968 175.77854,164.631613 176.366218,165.903226 Z M138.58046,176.354839 L141.235632,192.032258 L143.005747,178.096774 C142.788023,184.622065 142.788023,190.137903 143.005747,194.645161 C143.223471,199.152419 143.813805,205.829258 144.775862,214.677419 L141.235632,199 L139.465517,203.354839 C139.571724,199.058355 139.571724,195.283581 139.465517,192.032258 C139.35931,188.780935 139.063701,183.555129 138.58046,176.354839 Z M84.591954,85.7741935 C89.2765632,83.5689032 102.916184,79.9282581 105.228839,79.8951613 C105.922724,79.8847097 108.189356,78.6505484 112.028736,76.1935484 C112.404,77.9076129 112.994333,78.7785806 113.798851,78.8064516 C113.838678,78.8081935 119.994253,75.3225806 124.41954,70.0967742 L124.41954,76.1935484 C126.189655,74.4516129 128.844828,69.2258065 135.925287,65.7419355 C133.270115,71.1454194 136.810345,74.5700645 135.893425,74.5700645 C138.58046,71.1454194 143.890805,66.6129032 149.201149,64 C145.649414,69.9156129 144.775862,75.3225806 144.505034,76.1839677 C145.649414,74.5700645 154.511494,73.6990968 158.051724,70.0967742 C155.030138,73.4351935 153.626437,74.5700645 152.741379,78.8064516 C158.936782,78.8064516 160.706897,75.7423871 160.706897,76.1839677 C160.706897,79.0146129 166.185402,82.1143871 170.442529,83.1612903 C181.653552,87.2260968 194.33908,93.6129032 208.5,102.322581 L181.063218,102.322581 L178.408046,111.903226 L173.097701,106.677419 L159.821839,115.387097 L144.505034,109.290323 L141.235632,111.903226 L140.350575,105.806452 L116.454023,118 L114.683908,132.806452 L111.143678,135.419355 L111.112701,134.125968 L110.258621,98.8387097 L92.5574713,114.516129 L84.591954,102.322581 L54.5,102.322581 C60.9901264,97.6777097 71.0213678,92.161 84.591954,85.7741935 Z"/>
    <path fill="#FFF" fill-rule="nonzero" d="M109.971698,78.6842105 C108.136038,82.0940526 108.136038,83.5855789 109.971698,83.1578947 C111.807358,82.7302105 115.64983,80.3448421 121.5,76 C115.551396,81.0373684 110.52683,84.3174737 106.424528,85.8421053 C104.937377,86.3950526 106.424528,82.2631579 108.198113,80.4736842 C109.06717,79.5968421 97.8341698,83.7725789 74.5,93 C89.0460566,87.0965263 97.6186792,83.5175789 100.216981,82.2631579 C102.815283,81.0087368 106.067151,79.8160526 109.971698,78.6842105 Z"/>
    <path fill="#131516" fill-rule="nonzero" d="M72.2820775,0 C42.8278156,40.9269663 25.7119906,54.8595506 20.4399053,93.1741573 C19.2993775,101.462303 24.2744687,110.084831 35.3651788,119.038258 L38.013523,121.039326 C31.9058122,114.45618 28.9762901,111.262135 29.2267142,111.460674 C32.1553575,113.783062 36.6893509,116.308343 42.8278156,119.038258 C36.6893509,115.147584 31.5692774,111.170702 27.4684737,107.106742 C37.707742,110.009073 45.7063741,110.009073 51.4634913,107.106742 L57.3445025,116.685393 L57.3445025,141.067416 L53.2208531,155 C18.0736177,130.617978 0.5,112.621433 0.5,101.011236 C0.5,78.4735393 13.4104582,42.6685393 72.2820775,0 Z M201.717923,0.870786517 C231.171306,41.7977528 248.288009,55.7303371 253.560095,94.0449438 C254.700622,102.33309 249.725531,110.955618 238.634821,119.909045 L235.986477,121.910112 C242.094188,115.326966 245.022831,112.132921 244.773286,112.331461 C241.844642,114.653848 237.310649,117.179129 231.171306,119.909045 C237.310649,116.018371 242.429844,112.041489 246.530648,107.977528 C231.171306,112.331461 231.171306,111.460674 211.383412,105.365169 C214.312056,109.429129 218.979608,115.524635 225.386071,123.651685 L220.170221,128.876404 L225.386071,131.488764 L221.927583,152.38764 C256.308608,130.328006 273.5,113.492219 273.5,101.882022 C273.5,79.3443258 260.589542,43.5393258 201.717923,0.870786517 Z"/>
    <g transform="translate(48.5 98)">
      <path fill="#131516" fill-rule="nonzero" d="M0,0 L28.8955224,0 L38.5273632,14.08 L54.2885572,0 L56.039801,34.32 L62.1691542,31.68 L64.7960199,15.84 L84.9353234,5.28 L86.6865672,11.44 L90.1890547,7.92 L105.950249,14.08 L118.208955,5.28 L125.21393,11.44 L128.716418,0 L154.109453,0 L168.119403,21.12 L161.114428,27.28 L168.119403,31.68 L164.616915,53.68 C159.363184,53.68 154.401035,54.85304 149.731343,57.2 L133.970149,57.2 L128.716418,49.28 L123.265672,55.968 C104.843463,53.76096 90.8991841,52.70496 81.4328358,52.8 C71.9664876,52.89504 58.9967761,54.21944 42.5245771,56.77496 L34.1492537,51.92 L28.0199005,58.08 L18.3880597,58.08 C15.8058507,56.57256 12.887403,55.83424 9.6318408,55.8668 C6.37627861,55.89936 4.04099502,55.89936 2.62686567,55.8668 L8.75621891,41.36 L8.75621891,14.08 L0,0 Z" transform="translate(4.378 5.28)"/>
      <path stroke="#131516" stroke-width="5" d="M43.3047562,16.06 L60.6193035,0.59224 L62.4432239,36.33432 L64.584995,35.41208 L67.1943483,19.6768 L90.6811542,7.3612 L92.1478209,12.52064 L94.0295323,10.62864 L110.018388,16.8784 L122.724537,7.75808 L128.492259,12.8304 L131.478129,3.08 L159.659144,3.08 L175.383562,26.78544 L169.152637,32.26432 L174.88796,35.86704 L170.861851,61.16 L168.995025,61.16 C164.080159,61.16 159.454249,62.25384 155.088398,64.44768 L154.62607,64.68 L137.176677,64.68 L132.914149,58.25336 L128.576318,63.57472 L127.385473,63.43216 C109.048199,61.23568 95.1862289,60.18672 85.8328358,60.28 C76.488199,60.37328 63.614806,61.688 47.2371741,64.22944 L46.4753831,64.34736 L38.8881194,59.94912 L33.3051542,65.56 L22.176,65.56 L21.6663881,65.26256 C19.4335522,63.95752 16.9021294,63.31776 14.0309652,63.3468 C10.7535124,63.38024 8.39896517,63.38024 6.95506468,63.3468 L3.72927363,63.272 L10.9452736,46.19208 L10.9452736,19.99096 L0.429054726,3.08 L34.4250746,3.08 L43.3038806,16.06 L43.3047562,16.06 Z"/>
      <path stroke="#FFF" stroke-width="2" d="M0,0 L28.8955224,0 L38.5273632,14.08 L54.2885572,0 L56.039801,34.32 L62.1691542,31.68 L64.7960199,15.84 L84.9353234,5.28 L86.6865672,11.44 L90.1890547,7.92 L105.950249,14.08 L118.208955,5.28 L125.21393,11.44 L128.716418,0 L154.109453,0 L168.119403,21.12 L161.114428,27.28 L168.119403,31.68 L164.616915,53.68 C159.363184,53.68 154.401035,54.85304 149.731343,57.2 L133.970149,57.2 L128.716418,49.28 L123.265672,55.968 C104.843463,53.76096 90.8991841,52.70496 81.4328358,52.8 C71.9664876,52.89504 58.9967761,54.21944 42.5245771,56.77496 L34.1492537,51.92 L28.0199005,58.08 L18.3880597,58.08 C15.8058507,56.57256 12.887403,55.83424 9.6318408,55.8668 C6.37627861,55.89936 4.04099502,55.89936 2.62686567,55.8668 L8.75621891,41.36 L8.75621891,14.08 L0,0 Z" transform="translate(4.378 5.28)"/>
    </g>
    <path fill="#FFF" fill-rule="nonzero" d="M62.7663438 152.937589C63.3750617 152.258094 63.9227446 151.527184 64.4031477 150.753191 64.822841 150.08747 65.200565 149.338534 65.5363196 148.506383 65.8720743 147.674232 66.0399516 146.821277 66.0399516 145.947518L66.0399516 114.804255 60.5 109 81.0230024 109 91.5992736 125.414184C90.1919814 126.544849 88.7540027 127.637449 87.2869249 128.69078 85.7411905 129.803218 84.1882935 130.905841 82.6283293 131.998582 81.0544794 133.101182 79.5121065 134.182979 78.0012107 135.243972 76.6211119 136.210129 75.2569288 137.198438 73.909201 138.208511 73.909201 139.539953 73.9301856 140.808983 73.972155 142.015603 74.0141243 143.055792 74.0456013 144.116785 74.066586 145.198582 74.0875706 146.280378 74.098063 147.174941 74.098063 147.88227 74.098063 148.589598 74.2449556 149.244917 74.5387409 149.848227 74.8325262 150.451537 75.1682809 150.982033 75.5460048 151.439716 75.9656981 151.980615 76.4483454 152.479905 76.9939467 152.937589L62.7663438 152.937589zM81.3377724 124.041135L76.8680387 117.862411 73.909201 117.862411 73.909201 129.533333 81.3377724 124.041135zM92.7953995 146.259574C94.2223567 146.134752 95.1666667 145.822695 95.6283293 145.323404 96.0899919 144.824113 96.3208232 143.783924 96.3208232 142.202837L96.3208232 127.348936C95.6275497 126.659335 94.8916645 126.01317 94.1174334 125.414184 93.3619855 124.831678 92.9422922 124.519622 92.8583535 124.478014L104.064165 114.242553C104.064165 116.572577 104.074657 118.476123 104.095642 119.953191 104.116626 121.43026 104.127119 122.959338 104.127119 124.540426L104.127119 145.011348 104.693705 145.011348C105.281275 145.011348 106.131154 144.990544 107.243341 144.948936 108.395924 144.902582 109.543085 144.766944 110.674334 144.543262 111.838104 144.318107 112.969353 143.951262 114.042373 143.451064 115.112591 142.951773 115.899516 142.244444 116.403148 141.329078L116.403148 150.191489 116.214286 150.503546C115.96247 150.878014 115.731638 151.200473 115.521792 151.470922 115.311945 151.741371 114.986683 151.970213 114.546005 152.157447 114.105327 152.344681 113.517756 152.490307 112.783293 152.594326 112.04883 152.698345 111.031073 152.78156 109.730024 152.843972 108.428975 152.906383 106.813156 152.947991 104.882567 152.968794 102.951977 152.989598 100.58071 153 97.7687651 153L92.7953995 146.259574 92.7953995 146.259574zM129.434625 152.937589L127.514528 152.937589C126.318402 152.937589 124.985876 152.916785 123.516949 152.875177L117.725182 152.750355C118.102906 152.459102 118.522599 151.991017 118.984262 151.346099 119.445924 150.701182 119.718725 149.962648 119.802663 149.130496 119.844633 148.880851 119.939064 148.360757 120.085956 147.570213 120.232849 146.779669 120.411219 145.812293 120.621065 144.668085 120.830912 143.523877 121.072236 142.265248 121.345036 140.892199 121.617837 139.519149 121.880145 138.125296 122.131961 136.710638 122.761501 133.423641 123.47498 129.762175 124.272397 125.726241L122.257869 122.980142 135.100484 115.428369C134.974576 116.052482 134.869653 116.676596 134.785714 117.300709 134.701776 117.883215 134.670299 118.496927 134.691283 119.141844 134.712268 119.786761 134.806699 120.400473 134.974576 120.982979 135.184423 121.607092 135.478208 122.647281 135.855932 124.103546 136.233656 125.559811 136.653349 127.057683 137.115012 128.597163 137.620727 130.542753 138.166442 132.477907 138.751816 134.401418L143.473366 133.028369 144.354722 137.022695 140.07385 138.832624C140.493543 140.913002 140.955206 142.868558 141.458838 144.699291 141.880775 146.287685 142.363775 147.859517 142.90678 149.411348 143.452381 150.971631 144.018967 152.147045 144.606538 152.937589L133.023002 152.937589C133.358757 152.563121 133.673527 152.147045 133.967312 151.689362 134.219128 151.314894 134.44996 150.90922 134.659806 150.47234 134.869653 150.035461 134.974576 149.58818 134.974576 149.130496 134.974576 148.672813 134.911622 148.007092 134.785714 147.133333L134.40799 144.512057C134.240113 143.471868 134.051251 142.369267 133.841404 141.204255 132.288539 141.745154 130.924536 142.410875 129.749395 143.201418 128.727881 143.922499 127.825312 144.796234 127.07385 145.791489 126.297417 146.810875 126.014124 148.027896 126.223971 149.442553 127.273204 150.773995 128.081114 151.689362 128.6477 152.188652 129.214286 152.687943 129.476594 152.937589 129.434625 152.937589L129.434625 152.937589zM128.049637 139.269504L132.771186 136.148936 130.064165 128.409929 128.049637 139.269504zM162.548426 152.937589C162.506457 152.937589 163.073043 151.730969 164.248184 149.31773L164.248184 139.456738 155.497579 131.343262 155.497579 149.005674C155.497579 149.629787 155.59201 150.191489 155.780872 150.69078 155.969734 151.190071 156.190073 151.606147 156.441889 151.939007 156.693705 152.355083 157.008475 152.687943 157.386199 152.937589L145.802663 152.937589 147.376513 149.005674 147.376513 125.22695 143.284504 122.668085 144.669492 117.924823C146.977805 118.548936 148.887409 119.131442 150.398305 119.67234 151.882015 120.200246 153.306175 120.880042 154.6477 121.700709 155.969734 122.512057 157.354722 123.583452 158.802663 124.914894 160.250605 126.246336 162.065779 127.993853 164.248184 130.157447L164.248184 126.537589C164.248184 126.246336 164.090799 125.934279 163.776029 125.601418 163.461259 125.268558 163.115012 124.935697 162.737288 124.602837 162.248977 124.208533 161.744942 123.833765 161.226392 123.479433L170.7954 116.114894C170.75343 120.026005 170.721953 123.541844 170.700969 126.662411 170.679984 129.782979 170.658999 132.633097 170.638015 135.212766 170.61703 137.792435 170.606538 140.195272 170.606538 142.421277L170.606538 149.005674C170.606538 149.837825 170.858354 150.628369 171.361985 151.377305 171.865617 152.126241 172.306295 152.646336 172.684019 152.937589L162.548426 152.937589 162.548426 152.937589zM190.751816 113.743262L185.46368 109.124823 205.231235 109.124823 216.5 125.351773 206.868039 134.02695 216.122276 136.897872C216.164245 137.854846 216.216707 138.822222 216.279661 139.8 216.342615 140.777778 216.374092 141.682742 216.374092 142.514894 216.374092 143.43026 216.353107 144.345626 216.311138 145.260993 216.269001 146.177474 216.131879 147.087226 215.901937 147.975887 215.665731 148.883497 215.305668 149.754897 214.831719 150.565957 214.349072 151.398109 213.646086 152.188652 212.72276 152.937589L188.233656 152.937589 188.61138 152.313475C188.863196 151.8974 189.146489 151.366903 189.461259 150.721986 189.776029 150.077069 190.069814 149.338534 190.342615 148.506383 190.615416 147.674232 190.751816 146.821277 190.751816 145.947518L190.751816 113.743262 190.751816 113.743262zM207.875303 141.703546L198.872881 138.021277 198.872881 147.320567 204.475787 147.320567C205.52502 147.320567 206.353914 147.008511 206.96247 146.384397 207.571025 145.760284 207.875303 145.052955 207.875303 144.262411L207.875303 141.703546zM206.301453 124.041135L201.831719 117.862411 198.872881 117.862411 198.872881 129.595745 206.301453 124.041135 206.301453 124.041135zM130.5 69C126.492035 74.2917209 125.34727 78.1132253 127.064847 80.4653953 121.912116 78.7014883 91.8545239 97.2225115 124.488481 78.7014883 124.488481 76.9375813 126.492035 73.7034579 130.5 69z"/>
  </g>
</svg>
