<?xml version="1.0" standalone="no"?>
<!DOCTYPE svg PUBLIC "-//W3C//DTD SVG 20010904//EN"
 "http://www.w3.org/TR/2001/REC-SVG-20010904/DTD/svg10.dtd">
<svg version="1.0" xmlns="http://www.w3.org/2000/svg"
 width="311.000000pt" height="311.000000pt" viewBox="0 0 311.000000 311.000000"
 preserveAspectRatio="xMidYMid meet">
<metadata>
Created by potrace 1.11, written by Peter Selinger 2001-2013
</metadata>
<g transform="translate(0.000000,311.000000) scale(0.100000,-0.100000)"
fill="#000000" stroke="none">
<path d="M754 2953 c-138 -104 -359 -307 -442 -407 -155 -185 -252 -367 -292
-546 -27 -119 -22 -200 15 -270 27 -50 181 -216 260 -280 54 -43 107 -85 195
-150 47 -35 87 -65 89 -66 2 -2 -4 -22 -13 -45 -9 -23 -15 -44 -12 -46 3 -3
45 -7 93 -9 110 -4 180 -23 203 -55 39 -54 175 -320 216 -420 l18 -47 29 22
c86 65 99 80 95 116 l-4 35 -10 -35 c-7 -24 -17 -36 -31 -38 -30 -4 -43 25
-49 106 -3 37 -7 73 -9 80 -6 17 0 16 59 -14 100 -50 147 -122 150 -231 0 -35
4 -63 8 -63 15 0 40 109 44 191 2 63 -2 105 -15 153 -17 61 -17 66 -1 71 9 3
28 18 43 33 l26 27 -39 1 c-22 1 -69 16 -105 34 -64 31 -82 50 -47 48 9 -1 44
3 77 8 64 9 443 10 485 1 14 -3 36 -6 50 -6 l24 -1 -24 -17 c-50 -35 -134 -71
-162 -69 -15 1 -28 -1 -28 -5 0 -12 51 -49 66 -49 18 0 17 -12 -1 -80 -25 -90
-21 -199 12 -303 21 -64 29 -65 25 -3 -8 122 57 223 171 271 l39 16 -7 -76
c-3 -42 -10 -87 -15 -101 -17 -43 -69 -25 -71 25 0 23 -1 24 -8 6 -14 -34 7
-68 63 -108 30 -20 57 -37 59 -37 3 0 11 17 18 38 19 57 126 277 182 375 50
85 52 87 89 87 21 0 55 7 76 15 21 9 68 19 103 23 59 6 64 9 67 32 6 58 14 68
84 115 225 149 417 322 473 425 26 48 30 64 28 130 -5 308 -245 675 -658 1010
-102 83 -151 118 -140 99 5 -7 76 -104 158 -213 82 -110 176 -240 209 -290
120 -183 187 -362 204 -546 6 -62 4 -75 -20 -124 -15 -30 -48 -76 -74 -103
-60 -62 -100 -91 -47 -34 l40 43 -60 -32 -60 -31 35 28 c19 15 50 42 70 60
l35 32 -60 -16 c-72 -18 -154 -13 -240 17 -51 17 -64 27 -88 65 -26 41 -33 45
-67 45 -26 0 -57 11 -91 31 -84 49 -238 124 -319 154 -41 16 -86 40 -100 55
-23 24 -27 25 -53 12 -15 -7 -34 -12 -43 -10 -12 3 -12 9 5 41 17 34 18 38 3
32 -50 -20 -104 -36 -108 -32 -5 5 13 64 27 90 6 11 8 21 5 24 -7 7 -72 -41
-108 -79 l-27 -29 -7 26 c-3 14 -4 36 -2 50 4 21 2 23 -13 15 -10 -6 -38 -31
-63 -57 l-46 -47 0 33 0 32 -22 -24 c-43 -44 -101 -83 -106 -69 -5 17 -22 15
-67 -8 -22 -11 -47 -20 -57 -20 -61 0 -269 -88 -430 -181 -61 -36 -72 -39
-142 -39 l-76 0 32 -51 c25 -41 28 -53 17 -60 -30 -19 -162 -15 -224 7 -26 9
30 -45 90 -86 25 -17 45 -33 45 -35 0 -2 -28 12 -62 31 -53 30 -59 32 -43 12
11 -12 29 -31 39 -40 11 -10 17 -20 14 -23 -10 -10 -134 132 -157 179 -27 58
-29 120 -6 226 46 220 124 369 348 668 149 198 218 292 214 292 -2 0 -26 -17
-53 -37z"/>
<path d="M1498 1113 c-23 -14 -36 -15 -87 -7 -73 12 -68 4 13 -20 42 -13 61
-15 69 -7 14 14 60 14 73 1 6 -6 31 -4 69 6 79 21 81 25 8 18 -48 -5 -66 -3
-84 10 -28 19 -28 19 -61 -1z"/>
<path d="M1565 910 c2 -14 5 -70 5 -125 1 -81 3 -96 12 -80 11 18 14 13 24
-40 l12 -60 -3 65 c-2 36 -4 101 -5 145 -1 51 -4 73 -9 60 -5 -11 -6 -24 -3
-29 3 -5 0 -6 -6 -2 -7 4 -12 17 -13 29 0 12 -5 31 -10 42 -8 17 -9 17 -4 -5z"/>
<path d="M1348 432 c-68 -71 -88 -109 -95 -177 -5 -49 -3 -56 21 -78 28 -27
120 -53 214 -63 91 -10 252 31 300 76 29 27 31 111 3 155 -20 33 -81 99 -121
130 l-24 20 16 -26 c9 -14 21 -42 26 -62 9 -33 8 -41 -11 -63 -25 -28 -91 -42
-179 -37 -126 7 -157 48 -107 146 10 20 17 37 15 37 -1 0 -28 -26 -58 -58z"/>
</g>
</svg>
